<?xml version="1.0" encoding="iso-8859-1"?>
<!-- Uploaded to: SVG Repo, www.svgrepo.com, Generator: SVG Repo Mixer Tools -->
<!DOCTYPE svg PUBLIC "-//W3C//DTD SVG 1.1//EN" "http://www.w3.org/Graphics/SVG/1.1/DTD/svg11.dtd">
<svg fill="#000000" height="800px" width="800px" version="1.1" id="Capa_1" xmlns="http://www.w3.org/2000/svg" xmlns:xlink="http://www.w3.org/1999/xlink" 
	 viewBox="0 0 191.824 191.824" xml:space="preserve">
<path d="M165.069,0h-23.814c-5.219,0-9.449,4.231-9.449,9.449v62.338H60.019V9.449C60.019,4.231,55.788,0,50.569,0H26.755
	c-5.219,0-9.449,4.231-9.449,9.449v172.926c0,5.219,4.231,9.449,9.449,9.449h23.814c5.219,0,9.449-4.231,9.449-9.449v-69.196h71.787
	v69.196c0,5.219,4.231,9.449,9.449,9.449h23.814c5.219,0,9.449-4.231,9.449-9.449V9.449C174.518,4.231,170.288,0,165.069,0z"/>
</svg>